<?xml version="1.0" encoding="UTF-8"?>
<svg width="64px" height="64px" viewBox="0 0 64 64" version="1.1" xmlns="http://www.w3.org/2000/svg" xmlns:xlink="http://www.w3.org/1999/xlink">
    <!-- Generator: Sketch 51.3 (57544) - http://www.bohemiancoding.com/sketch -->
    <title>Logo Circle</title>
    <desc>Created with Sketch.</desc>
    <defs></defs>
    <g id="3.0.0---Dashboard" stroke="none" stroke-width="1" fill="none" fill-rule="evenodd">
        <g id="Desktop---Landing-Page" transform="translate(-22.000000, -4736.000000)">
            <g id="Footer" transform="translate(0.000000, 4146.000000)">
                <g id="Logo-Circle" transform="translate(22.000000, 590.000000)">
                    <circle id="Oval" fill="#FFC300" fill-rule="nonzero" cx="32" cy="32" r="32"></circle>
                    <g id="Global---Logo" transform="translate(14.000000, 20.000000)" fill="#171D21">
                        <path d="M35.593431,13.1769859 C35.2787199,11.2222534 33.3957577,10.2637486 32.0219909,9.56416012 C31.8522591,9.47671156 31.6878314,9.39269236 31.5304759,9.31038783 C30.8073477,8.92630004 29.7023229,8.34330964 28.7511175,7.84090909 C28.5177363,8.54907096 28.0368295,9.14920813 27.4074074,9.54701334 C28.41519,10.0768487 29.6811064,10.745573 30.4802603,11.1708131 C30.646456,11.2582616 30.82326,11.3491395 31.0053681,11.4417321 C32.0750321,11.9869996 33.2879073,12.6042836 33.4328865,13.5044893 C33.4717834,13.7411149 33.3922216,14.0411834 33.3002836,14.389263 C33.2543145,14.5658748 33.2101135,14.7407719 33.1729847,14.9190984 L35.3176168,15.3409091 C35.3459054,15.1968762 35.3830343,15.0545579 35.4201631,14.9122397 C35.5456939,14.4355593 35.7012814,13.8422808 35.593431,13.1769859" id="Fill-3" fill-rule="evenodd"></path>
                        <path d="M21.2050184,13.0355849 C20.8944478,10.9711155 19.0362589,9.95880116 17.6805662,9.21993843 C17.5113227,9.12758059 17.3490583,9.03884462 17.1955178,8.95191959 C16.3702377,8.48288664 15.0389718,7.73134734 14.021766,7.15909091 C13.9135898,7.93779428 13.5471863,8.62957262 13.0185185,9.14206809 C14.0287452,9.71070264 15.3425632,10.4513763 16.1573747,10.9167874 C16.3231286,11.0091452 16.4976065,11.105125 16.6773186,11.2029156 C17.7329095,11.7787939 18.9298274,12.4307316 19.0728993,13.3814741 C19.1095396,13.6313836 19.0310246,13.9482977 18.9420409,14.3159181 C18.8931871,14.5187432 18.8425885,14.7215683 18.8059482,14.9262043 L20.9275986,15.3409091 C20.9555151,15.1815465 20.995645,15.0258059 21.0340301,14.8682543 C21.1579093,14.3648135 21.3114498,13.7400398 21.2050184,13.0355849" id="Fill-5" fill-rule="evenodd"></path>
                        <polygon id="Fill-9" fill-rule="evenodd" points="13.0185185 19.2470041 11.5593625 21.7804995 7.48618199 22.0548853 7.46304902 22.0914701 10.3653459 23.8511975 9.18022649 25.9090909 0 20.3445472 1.18511937 18.2848246 6.77083966 21.6725744 6.79219316 21.6341604 5.48251169 18.1640949 6.91319634 15.6818182 8.26558482 19.7335816"></polygon>
                        <path d="M15.3057362,15.1407466 L14.4664066,14.6360447 L14.4521505,14.6614614 C14.5483793,14.8175922 14.621442,14.9936932 14.6731205,15.1861335 C14.7247989,15.3785738 14.7497471,15.5819069 14.7444011,15.7961329 C14.7408371,16.0103588 14.7105428,16.2336622 14.6535183,16.4605965 C14.5982758,16.6893463 14.507393,16.9108341 14.3826518,17.1250601 C14.1420797,17.5371728 13.8676492,17.8421725 13.5557964,18.0382437 C13.2439436,18.2361304 12.9213986,18.3541363 12.5863796,18.3940767 C12.2513606,18.4303862 11.9145596,18.4013386 11.5724125,18.3014875 C11.2302654,18.2034519 10.9059384,18.0600294 10.5976497,17.874851 L6.85185185,15.6254783 L8.04045658,13.5812541 L11.3247122,15.5546748 C11.4940038,15.6563413 11.6650773,15.7416686 11.8325868,15.8106567 C12.0000963,15.8778292 12.1658238,15.9123232 12.3279873,15.9159542 C12.4901507,15.9177696 12.6398401,15.8832756 12.7770553,15.8088412 C12.9124886,15.7344067 13.0354477,15.6018771 13.1459327,15.4130678 C13.3526465,15.0590503 13.3793768,14.7104792 13.2279054,14.3673545 C13.076434,14.0260453 12.8269518,13.7500932 12.4776766,13.5413137 L9.2058951,11.5769704 L10.3873718,9.54545455 L16.4444444,13.1836652 L15.3057362,15.1407466 Z" id="Fill-11" fill-rule="evenodd"></path>
                        <path d="M18.6892728,3.56270589 L18.5339641,3.81620589 C18.4005814,4.03425135 18.2781617,4.26116044 18.1630506,4.49338771 C18.0479394,4.72738771 17.9675444,4.94720589 17.9200382,5.15284225 C17.872532,5.36025135 17.8707049,5.55170589 17.9127296,5.72897862 C17.9565814,5.90625135 18.0698654,6.0462968 18.2525814,6.15088771 C18.3695197,6.21825135 18.4846308,6.25016044 18.5997419,6.24484225 C18.714853,6.23952407 18.8226555,6.21116044 18.9213222,6.15797862 C19.0199888,6.10834225 19.113174,6.03566044 19.1972234,5.94170589 C19.2812728,5.84952407 19.3543592,5.7537968 19.4128283,5.65806953 C19.659495,5.25388771 19.7325814,4.88161498 19.6339148,4.53593316 C19.5370752,4.19202407 19.2922357,3.90661498 18.9012234,3.68325135 L18.6892728,3.56270589 Z M13.8107543,5.68288771 C13.6791987,5.12802407 13.6682357,4.5642968 13.7815197,3.99347862 C13.8948036,3.42266044 14.1012728,2.89084225 14.4027543,2.39802407 C14.7133715,1.89102407 15.0386061,1.49925135 15.3821123,1.22270589 C15.7256185,0.944387709 16.0983592,0.775978619 16.5003345,0.712160437 C16.904137,0.648342255 17.3408283,0.685569528 17.8140629,0.8202968 C18.2872975,0.955024073 18.8062111,1.18370589 19.3726308,1.50634225 L22.5025567,3.29856953 L21.3952975,5.11206953 L20.7338654,4.73270589 L20.7119394,4.76993316 C20.8763839,5.06952407 20.934853,5.41520589 20.8873469,5.80697862 C20.8380135,6.19697862 20.7046308,6.57456953 20.4817172,6.93797862 C20.3337172,7.17906953 20.149174,7.40952407 19.9244333,7.62934225 C19.7015197,7.84916044 19.4493715,8.02466044 19.1679888,8.15052407 C18.8884333,8.27993316 18.5814703,8.34020589 18.2489271,8.33488771 C17.9163839,8.32956953 17.5655691,8.22143316 17.200137,8.01225135 C16.7506555,7.75520589 16.4619641,7.4307968 16.3322357,7.03547862 C16.2043345,6.64016044 16.1787543,6.21293316 16.2573222,5.75202407 C16.3377172,5.29288771 16.4930259,4.8177968 16.7232481,4.3302968 C16.9534703,3.8427968 17.2019641,3.38011498 17.4687296,2.9457968 L17.3682357,2.88906953 C17.0594456,2.71356953 16.7707543,2.68697862 16.4966802,2.81461498 C16.2226061,2.94047862 15.9923839,3.15675135 15.8060135,3.46166044 C15.6342604,3.7452968 15.5301123,4.05197862 15.4935691,4.38525135 C15.458853,4.71852407 15.4716432,5.02875135 15.5337666,5.31416044 L13.8107543,5.68288771 Z" id="Fill-13" fill-rule="evenodd"></path>
                        <polygon id="Fill-16" fill-rule="evenodd" points="28.0925926 19.9300137 26.6334366 22.4612271 22.5602561 22.7355638 22.5371231 22.772142 25.4394199 24.5315548 24.2543006 26.5909091 15.0740741 21.0255316 16.2591934 18.9680062 21.8449137 22.3533213 21.8662672 22.3167431 20.5565858 18.8454692 21.9872704 16.3636364 23.3396589 20.4146752"></polygon>
                        <path d="M30.3798102,15.8220433 L29.5404807,15.3192038 L29.5262245,15.3428028 C29.6206714,15.5007343 29.6955161,15.6750036 29.7471945,15.867426 C29.798873,16.0598483 29.8238212,16.2649778 29.8184752,16.4791838 C29.8149111,16.6933898 29.7846169,16.9148571 29.7275924,17.1435855 C29.6723499,17.3704987 29.581467,17.5919659 29.4567259,17.8061719 C29.2161537,18.2182462 28.9399412,18.5232175 28.6298704,18.7210857 C28.3180176,18.918954 27.9954727,19.0369489 27.6604537,19.0750703 C27.3272167,19.1131917 26.9886336,19.0823315 26.6464865,18.984305 C26.3043394,18.8844632 25.9800125,18.7410541 25.6717237,18.555893 L21.9259259,16.3067298 L23.1145307,14.2645115 L26.3970043,16.2377482 C26.5680778,16.3394053 26.7373694,16.4247247 26.9066609,16.491891 C27.0741704,16.5590573 27.2398979,16.5953634 27.4020614,16.5971787 C27.5642248,16.6008093 27.7139142,16.5645032 27.8493474,16.4900757 C27.9865626,16.4174635 28.1095217,16.2849462 28.2200067,16.0943391 C28.4267206,15.7403546 28.4534509,15.391816 28.3019795,15.0505386 C28.1505081,14.7092613 27.9010259,14.4333349 27.5517507,14.2245748 L24.2799692,12.2585992 L25.4614458,10.2272727 L31.5185185,13.8669596 L30.3798102,15.8220433 Z" id="Fill-18" fill-rule="evenodd"></path>
                        <path d="M33.4368724,4.18678404 L33.2917522,4.43694048 C33.1671196,4.64887857 33.0510234,4.86950265 32.945171,5.09881272 C32.8376114,5.32812279 32.7624903,5.54353528 32.7181006,5.74505019 C32.6737109,5.94830229 32.6702963,6.13591962 32.7112714,6.30963937 C32.7522465,6.48335912 32.8580989,6.62059772 33.0288286,6.72309237 C33.1380955,6.78910588 33.2456552,6.82037543 33.3532149,6.81516384 C33.4607745,6.80995225 33.561505,6.78215709 33.653699,6.73004116 C33.745893,6.67966243 33.8312579,6.61017453 33.9115008,6.51810307 C33.9900364,6.4277688 34.056621,6.33396013 34.1129618,6.23841427 C34.3434468,5.84407044 34.4117386,5.47752177 34.3195446,5.14050546 C34.2273506,4.80348915 34.0002802,4.52380035 33.6349188,4.30491347 L33.4368724,4.18678404 Z M29.2209836,6.26273504 C29.0963509,5.72072942 29.0878145,5.16830062 29.1936668,4.60892303 C29.2995192,4.04954544 29.4924437,3.5283862 29.7741476,3.04544529 C30.0626807,2.54860681 30.3682868,2.16468617 30.6892585,1.89368336 C31.0085229,1.62094336 31.3585187,1.4559096 31.7341239,1.39337049 C32.1114364,1.33083138 32.5194802,1.36731252 32.96167,1.49933953 C33.4038598,1.63136654 33.888732,1.85546502 34.4179938,2.17163496 L37.3425926,3.92794162 L36.307971,5.70335745 L35.6899297,5.33333438 L35.6694421,5.36981553 C35.8230988,5.66340191 35.8777323,6.00215541 35.8316353,6.38607606 C35.7872456,6.76825951 35.6609056,7.13828257 35.4543228,7.49440805 C35.3160318,7.73066691 35.1435948,7.95650259 34.9335974,8.17191507 C34.7253072,8.38732756 34.4897003,8.55931011 34.2267766,8.68265114 C33.9655603,8.80946655 33.6787345,8.86853127 33.3680066,8.86331967 C33.0572786,8.85810808 32.7294777,8.75213903 32.3880184,8.54714973 C31.9680235,8.2952561 31.6982707,7.97734896 31.5770526,7.58995392 C31.4575419,7.20255888 31.4336397,6.78389428 31.5070535,6.33222294 C31.5821745,5.88228879 31.7255874,5.41671986 31.9424141,4.93899055 C32.1575334,4.46126125 32.3897257,4.0078527 32.638991,3.58223932 L32.5433824,3.526649 C32.2565566,3.35466645 31.9868038,3.32860848 31.7307093,3.4536867 C31.4746148,3.57702772 31.2594955,3.78896582 31.0853513,4.08950098 C30.9231581,4.36571538 30.8275495,4.66625055 30.7934036,4.99284368 C30.7609649,5.3194368 30.772916,5.62344636 30.8309641,5.90313516 L29.2209836,6.26273504 Z" id="Fill-20" fill-rule="evenodd"></path>
                        <path d="M32.778594,17.0454545 C31.6233548,22.2346783 29.3450158,25.5901296 26.0060708,27.0148298 C20.533415,29.3528899 13.6394756,25.9604106 12.0949903,25.1299232 L10.962963,27.0060136 C11.6843179,27.40098 13.5466279,28.3531311 15.9588817,29.0813505 C17.9890317,29.6931957 19.9334762,30 21.7440057,30 C23.6152433,30 25.3418529,29.6738001 26.8738394,29.0214002 C30.9144985,27.2987119 33.6285073,23.4160511 34.9444444,17.4792123 L32.778594,17.0454545 Z" id="Fill-22" fill-rule="evenodd"></path>
                        <ellipse id="Oval" fill-rule="nonzero" cx="10.7916667" cy="6.64772727" rx="2.56944444" ry="2.55681818"></ellipse>
                        <ellipse id="Oval" fill-rule="nonzero" cx="25.5231481" cy="6.64772727" rx="2.56944444" ry="2.55681818"></ellipse>
                    </g>
                </g>
            </g>
        </g>
    </g>
</svg>